Diacritics.sfdir
StartChar: quotedbl
Encoding: 34 34 57
Width: 1024
VWidth: 0
Flags: W
HStem: 1024 640<384 512 640 768>
VStem: 384 128<1024 1664> 640 128<1024 1664>
LayerCount: 5
Back
Fore
SplineSet
640 1664 m 5
 768 1664 l 5
 768 1024 l 5
 640 1024 l 5
 640 1664 l 5
384 1664 m 1
 512 1664 l 1
 512 1024 l 1
 384 1024 l 1
 384 1664 l 1
EndSplineSet
Layer: 2
Layer: 3
Layer: 4
EndChar
StartChar: comma
Encoding: 44 44 67
Width: 1024
VWidth: 0
Flags: W
HStem: -384 640<384 512>
VStem: 384 256<70.656 256> 384 128<-384 -326.656>
LayerCount: 5
Back
Fore
SplineSet
384 256 m 5xc0
 640 256 l 5
 640 128 l 5xc0
 512 -384 l 5
 384 -384 l 5xa0
 384 256 l 5xc0
EndSplineSet
Layer: 2
Layer: 3
Layer: 4
EndChar
StartChar: slash
Encoding: 47 47 69
Width: 1024
VWidth: 0
Flags: W
LayerCount: 5
Back
SplineSet
0 -640 m 29
 1152 2048 l 1053
EndSplineSet
Fore
SplineSet
1056 1664 m 5
 234 -256 l 5
 96 -256 l 5
 918 1664 l 5
 1056 1664 l 5
EndSplineSet
Layer: 2
Layer: 3
Layer: 4
EndChar
StartChar: at
Encoding: 64 64 86
Width: 1024
VWidth: 0
Flags: W
HStem: 0 120<283.968 1024> 368 120<576.403 802.1> 896 110<578.102 896> 1288 120<283.968 868.436>
VStem: 128 128<147.5 1260.44> 384 128<553.682 827.808> 896 128<384 507 577.321 896 1006 1260.21>
LayerCount: 5
Back
SplineSet
768 512 m 5xbc
 572 512 l 6
 517 512 459 512 408 458 c 4
 372 420 352 362 352 303 c 4
 352 194 425 104 532 104 c 4
 638 104 715 162 746 235 c 4
 768 287 768 349 768 421 c 6
 768 512 l 5xbc
608 1040 m 4
 704 1040 805 1021 866 913 c 4
 896 860 896 785 896 749 c 6
 896 0 l 5
 768 0 l 5x7c
 768 123 l 5
 758 123 l 5
 694 35 617 -16 508 -16 c 4
 455 -16 347 10 283 106 c 4
 249 157 224 224 224 301 c 4
 224 383 249 470 312 533 c 4
 402 622 512 622 574 622 c 6
 768 622 l 5
 768 744 l 6
 768 788 768 831 750 862 c 4
 729 898 696 920 608 920 c 4
 549 920 418 906 320 891 c 5
 320 1013 l 5
 417 1027 545 1040 608 1040 c 4
EndSplineSet
Fore
SplineSet
432 1288 m 0
 310.840820312 1288 256 1267.82910156 256 1128 c 2
 256 280 l 2
 256 140 310.840820312 120 432 120 c 0
 530 120 965 120 1024 120 c 5
 1024 0 l 5
 961 0 516 0 419 0 c 0
 383 0 308 0 255 30 c 0
 147.056640625 91.099609375 128 192 128 288 c 2
 128 1120 l 2
 128 1216 147.056640625 1316.90039062 255 1378 c 0
 308 1408 383 1408 419 1408 c 0
 516 1408 673 1408 736 1408 c 0
 832 1408 932.900390625 1388.94335938 994 1281 c 0
 1024 1228 1024 1153 1024 1117 c 2
 1024 384 l 1
 896 384 l 1
 896 507 l 1
 886 507 l 1
 830.192382812 419 763.047851562 368 668 368 c 0
 615 368 507 394 443 490 c 0
 409 541 384 608 384 685 c 0
 384 767 408.649414062 854.352539062 472 917 c 0
 562 1006 672 1006 734 1006 c 2
 896 1006 l 1
 896 1112 l 2
 896 1233.15917969 875.829101562 1288 736 1288 c 0
 677 1288 530 1288 432 1288 c 0
896 896 m 1
 732 896 l 2
 677 896 619.083007812 895.920898438 568 842 c 0
 532 804 512 746 512 687 c 0
 512 578 585 488 692 488 c 0
 782.149414062 488 843.7578125 547.51953125 874 619 c 0
 896 671 896 733 896 805 c 2
 896 896 l 1
EndSplineSet
Layer: 2
Layer: 3
Layer: 4
EndChar
StartChar: A
Encoding: 65 65 29
Width: 1024
VWidth: 0
Flags: WO
HStem: 0 21G<105 246.982 905.032 1047> 384 120<347.706 804.476> 1260 20G<410.5 741.5>
VStem: 105 130<0 216.999> 917 130<0 216.999>
AnchorPoint: "bottom" 960 0 basechar 0
AnchorPoint: "top" 576 1282 basechar 0
LayerCount: 5
Back
Fore
SplineSet
315.443865384 384 m 1
 285.235303624 264.658257577 258.964065143 139.250648803 235 0 c 1
 105 0 l 1
 189 481 303 835 518 1280 c 1
 634 1280 l 1
 849 835 963 481 1047 0 c 1
 917 0 l 1
 893.064359533 139.085478386 866.827015732 264.569982523 836.663612524 384 c 1
 315.443865384 384 l 1
347.705899475 504 m 1
 804.475953604 504 l 1
 746.634982664 707.518749231 675.053150744 900.331998539 581 1123 c 1
 571 1123 l 1
 477.045393002 899.433314674 405.51504106 706.940239925 347.705899475 504 c 1
EndSplineSet
Layer: 2
SplineSet
105.090869209 5.3290705182e-15 m 5
 138.990226706 194.658995533 177.065621384 391.275421493 241.024414062 582.654296875 c 4
 308.241210938 783.784179688 402.002929688 976.553710938 522.10546875 1152.36035156 c 5
 629.89453125 1152.36035156 l 5
 749.997070312 976.553710938 843.758789062 783.784179688 910.975585938 582.654296875 c 4
 974.934286784 391.275696275 1013.00966396 194.659560137 1046.90898477 0 c 5
 917.196239438 0 l 5
 884.392245019 186.621291052 847.599365046 370.924600828 788.831054688 546.77734375 c 4
 735.279296875 707.016601562 664.377929688 860.870117188 576 1004.54199219 c 5
 488.543945312 862.369140625 416.654296875 706.815429688 363.168945312 546.776367188 c 4
 304.400635009 370.924521629 267.60775505 186.621284947 234.803760655 0 c 5
 105.090869209 5.3290705182e-15 l 5
EndSplineSet
Layer: 3
SplineSet
522.10546875 1152.36035156 m 5
 629.89453125 1152.36035156 l 5
 850.990758237 828.718693152 968.816197939 478.431035459 1046.90898477 0 c 5
 917.196239438 0 l 5
 894.796425506 139.407898747 869.094013983 266.207788177 838.250473168 384 c 5
 313.829372848 384 l 5
 282.931614873 266.120418918 257.180578093 139.274293211 234.803760655 0 c 5
 105.090869209 5.3290705182e-15 l 5
 183.103853279 477.971001193 301.189708642 828.982861387 522.10546875 1152.36035156 c 5
348.045281032 504 m 5
 804.059379861 504 l 5
 747.664521782 686.211480153 675.953680709 847.884516397 581 1004.54199219 c 5
 571 1004.54199219 l 5
 476.303228108 848.308783688 404.534930953 686.441385302 348.045281032 504 c 5
EndSplineSet
Layer: 4
EndChar
StartChar: C
Encoding: 67 67 31
Width: 1024
VWidth: 0
Flags: HW
HStem: -16 120<443.242 931.402> 1048 120<443.265 931.425>
VStem: 112 128<328.337 823.674>
AnchorPoint: "top" 576 1152 basechar 0
AnchorPoint: "bottom" 704 0 basechar 0
LayerCount: 5
Back
SplineSet
1134.79980469 201.791992188 m 5
 1169.20019531 86.20703125 l 5
 1111.25488281 71.0498046875 1053.11523438 55.822265625 994.63671875 41.0625 c 4
 924.822265625 23.4423828125 852.940429688 5.8681640625 778.014648438 -5.26171875 c 4
 734.126953125 -11.779296875 689.180664062 -16 642.99609375 -16 c 5
 542.689453125 -15.9892578125 437.331054688 5.927734375 347.790039062 63.5263671875 c 4
 260.482421875 119.688476562 197.8828125 203.892578125 161.272460938 295.484375 c 4
 125.004882812 386.219726562 112 482.494140625 112 576 c 4
 112 669.505859375 125.004882812 765.779296875 161.272460938 856.515625 c 4
 197.8828125 948.107421875 260.482421875 1032.31054688 347.791015625 1088.47363281 c 4
 437.350585938 1146.08398438 542.733398438 1167.99414062 643.0703125 1168 c 4
 689.084960938 1168 734.172851562 1163.77246094 778.014648438 1157.26074219 c 4
 852.938476562 1146.1328125 924.823242188 1128.55859375 994.638671875 1110.9375 c 4
 1053.11328125 1096.17773438 1111.25488281 1080.95019531 1169.20117188 1065.79296875 c 5
 1134.79882812 950.208007812 l 5
 1076.82910156 965.372070312 1019.06054688 980.5 961.361328125 995.063476562 c 4
 892.293945312 1012.49609375 824.745117188 1028.82324219 757.985351562 1038.73925781 c 4
 719.106445312 1044.51367188 680.684570312 1048 643.0703125 1048 c 4
 562.116210938 1047.99511719 483.088867188 1029.97460938 420.208984375 989.526367188 c 4
 358.9765625 950.137695312 310.078125 886.819335938 281.133789062 814.407226562 c 4
 251.846679688 741.138671875 240 659.114257812 240 576 c 4
 240 492.884765625 251.846679688 410.861328125 281.133789062 337.592773438 c 4
 310.078125 265.1796875 358.9765625 201.862304688 420.209960938 162.473632812 c 4
 483.064453125 122.041992188 562.10546875 104.008789062 643.006835938 104 c 4
 680.766601562 104 719.06640625 107.479492188 757.985351562 113.260742188 c 4
 824.743164062 123.176757812 892.294921875 139.504882812 961.36328125 156.936523438 c 4
 1019.05859375 171.499023438 1076.82910156 186.62890625 1134.79980469 201.791992188 c 5
EndSplineSet
Fore
SplineSet
653 -16 m 4
 303.540489642 -16 112 213 112 576 c 4
 112 939 300 1168 643 1168 c 4
 791.120734908 1168 906.992125984 1155.70153846 1011 1141 c 5
 1011 1021 l 5
 906.128608924 1035.20735786 789.188976378 1048 643 1048 c 4
 370 1048 240 870 240 576 c 4
 240 282 373.225806452 104 653 104 c 4
 771.797900262 104 906.175853018 118.243243243 1024 135 c 5
 1024 15 l 5
 910.070866142 -1.75675675676 783.482939633 -16 653 -16 c 4
EndSplineSet
Layer: 2
SplineSet
643.070697596 1108.00000368 m 0
 684.884880438 1108.00000368 726.639507266 1104.14338274 768 1098 c 0
 838.841840215 1087.4776752 908.558647086 1070.52666967 978 1053 c 0
 1036.08682056 1038.3391607 1094.04171329 1023.16100041 1152 1008 c 1
 976 640 l 1
 1152 144 l 1
 1094.04171329 128.838999587 1036.08682056 113.660839301 978 99 c 0
 908.558647086 81.4733303333 838.841840215 64.5223247964 768 54 c 0
 726.639507266 47.8566172622 684.884880438 43.9999963248 643.070697596 43.9999963248 c 0
 643 44 l 0
 552.399628427 44.0094200208 460.196918531 63.9851346604 384 113 c 0
 309.729099311 160.775924094 253.980001089 234.536369276 221.202861652 316.538593285 c 0
 188.425722215 398.540817294 176 487.689719669 176 576 c 0
 176 664.310280331 188.425722215 753.459182706 221.202861652 835.461406715 c 0
 253.980001089 917.463630724 309.729099311 991.224075906 384 1039 c 0
 460.219627275 1088.0294731 552.424658159 1107.99529147 643.070697596 1108.00000368 c 0
  Spiro
    643 1108 o
    768 1098 o
    978 1053 o
    1152 1008 v
    976 640 v
    1152 144 v
    978 99 o
    768 54 o
    643 44 o
    384 113 o
    176 576 o
    384 1039 o
    0 0 z
  EndSpiro
EndSplineSet
Layer: 3
SplineSet
896 128 m 1
 896 520 l 1
 640 520 l 1
 640 640 l 1
 1024 640 l 1
 1024 33 l 1
 907 8.38461538462 787 -16 643 -16 c 4
 300 -16 112 213 112 576 c 4
 112 939 300 1168 643 1168 c 4
 791.120734908 1168 906.992125984 1155.70153846 1011 1141 c 5
 1011 1021 l 5
 906.128608924 1035.20735786 789.188976378 1048 643 1048 c 4
 370 1048 240 870 240 576 c 4
 240 282 370 104 643 104 c 4
 735.120981786 104 817.141240128 114.616033824 896.432617188 127.692382812 c 1
 896 128 l 1
EndSplineSet
Layer: 4
EndChar
StartChar: I
Encoding: 73 73 37
Width: 1024
VWidth: 0
Flags: W
HStem: 0 120<256 512 640 896> 1032 120<256 512 640 896>
VStem: 512 128<120 1032>
AnchorPoint: "bottom" 832 0 basechar 0
AnchorPoint: "top" 576 1152 basechar 0
LayerCount: 5
Back
Fore
SplineSet
896 1152 m 5
 896 1032 l 5
 640 1032 l 5
 640 120 l 1
 896 120 l 1
 896 0 l 1
 256 0 l 1
 256 120 l 1
 512 120 l 1
 512 1032 l 5
 256 1032 l 5
 256 1152 l 5
 896 1152 l 5
EndSplineSet
Layer: 2
Layer: 3
Layer: 4
EndChar
StartChar: N
Encoding: 78 78 41
Width: 1024
VWidth: 0
Flags: W
HStem: 0 21G<128 256 882.624 1024> 1132 20G<128 268.397 896 1024>
VStem: 128 128<0 942> 896 128<210 1152>
AnchorPoint: "bottom" 576 0 basechar 0
AnchorPoint: "top" 576 1152 basechar 0
LayerCount: 5
Back
SplineSet
192 0 m 1
 192 1521 l 1
 960 15 l 1
 960 1536 l 1025
EndSplineSet
Fore
SplineSet
256 0 m 1
 128 0 l 1
 128 1152 l 1
 255 1152 l 1
 886 210 l 1
 896 210 l 1
 896 1152 l 1
 1024 1152 l 1
 1024 0 l 1
 896 0 l 1
 266 942 l 5
 256 942 l 5
 256 0 l 1
EndSplineSet
Layer: 2
Layer: 3
Layer: 4
EndChar
StartChar: S
Encoding: 83 83 46
Width: 1024
VWidth: 0
Flags: HW
HStem: -16 120<255.397 815.506> 1047 120<442.443 984.716>
VStem: 226 128<736.7 965.491> 926 128<199.805 434.174>
AnchorPoint: "top" 576 1152 basechar 0
AnchorPoint: "bottom" 704 0 basechar 0
LayerCount: 5
Back
SplineSet
620 -16 m 4
 486 -16 366 -2 250 16 c 5
 250 139 l 5
 364 121 492 104 620 104 c 4
 799 104 926 209 926 385 c 4
 926 508 857 597 768 632 c 4
 654 678 544 650 411 721 c 4
 304 778 226 895 226 1045 c 4
 226 1266 385 1424 620 1424 c 4
 756 1424 877 1410.85714286 990 1399 c 5
 990 1278 l 5
 878 1290.37037037 745 1304 620 1304 c 4
 455 1304 354 1198 354 1045 c 4
 354 942 405 863 477 825 c 4
 575 773 700 788 816 742 c 4
 945 691 1054 566 1054 385 c 4
 1054 143 869 -16 620 -16 c 4
EndSplineSet
Fore
SplineSet
620 -16 m 0
 486 -16 366 -2 250 16 c 1
 250 139 l 1
 364 121 492 104 620 104 c 0
 799 104 926 184 926 320 c 0
 926 412 856 475 768 505 c 0
 654 544 542 515 411 578 c 0
 304 629 226 733 226 866 c 0
 226 1041 385 1167 620 1167 c 0
 756 1167 877 1154 990 1142 c 1
 990 1022 l 1
 878 1034 745 1047 620 1047 c 0
 455 1047 354 964 354 844 c 0
 354 770 406 717 477 686 c 0
 575 643 701 659 816 618 c 0
 945 572 1054 460 1054 298 c 0
 1054 109 869 -16 620 -16 c 0
EndSplineSet
Layer: 2
SplineSet
576 1364 m 4
 788.0625 1364 936 1234.61328125 936 1034 c 4
 936 842.827148438 788.0625 704 576 704 c 4
 363.9375 704 216 842.827148438 216 1034 c 4
 216 1234.61328125 363.9375 1364 576 1364 c 4
  Spiro
    576 1364 o
    763.423 1323.1 o
    889.881 1208.57 o
    936 1034 o
    889.881 863.625 o
    763.423 746.99 o
    576 704 o
    388.577 746.99 o
    262.119 863.625 o
    216 1034 o
    262.119 1208.57 o
    388.577 1323.1 o
    0 0 z
  EndSpiro
576 704 m 4
 811.625 704 976 562.8125 976 374 c 4
 976 175.747070312 811.625 44 576 44 c 4
 340.375 44 176 175.747070312 176 374 c 4
 176 562.8125 340.375 704 576 704 c 4
  Spiro
    576 704 o
    784.248 660.486 o
    924.757 543.326 o
    976 374 o
    924.757 200.479 o
    784.248 85.4188 o
    576 44 o
    367.752 85.4188 o
    227.243 200.479 o
    176 374 o
    227.243 543.326 o
    367.752 660.486 o
    0 0 z
  EndSpiro
EndSplineSet
Layer: 3
SplineSet
79 128 m 0
 144.937293333 111.314584254 211.289256081 96.2592004484 278 83 c 0
 327.455314491 73.1704299853 377.096925986 64.2202342125 427 57 c 0
 476.379220837 49.8555595677 526.108353076 44.4171891802 576 44 c 0
 577.94434705 43.9837415559 579.889238634 43.9755192265 581.834520801 43.9755192265 c 0
 638.022896611 43.9755192265 694.537140116 50.8354955705 747.667241846 69.0429610748 c 0
 802.636746084 87.88078219 853.669434506 119.225983138 893 162 c 0
 945.716298149 219.331690954 975.925889087 296.50286806 976.000554053 374.579368562 c 0
 976.000554053 438.003563074 956.084104364 501.431969773 918.970350955 552.863430049 c 0
 881.743588313 604.451496148 827.583341456 642.706820736 768 665 c 0
 705.513526136 688.379389766 638.236986955 694.802966978 572.031499459 703.048493467 c 0
 505.826011962 711.294019955 438.755329727 723.393568528 380 755 c 0
 330.230633982 781.772584951 287.75299194 822.157935526 259.400105435 871.044282553 c 0
 230.531977888 920.819013638 215.985328117 977.666399 215.985328117 1036.12032969 c 0
 215.985328117 1122.70456949 249.848762541 1209.7323259 312 1270 c 0
 346.427948532 1303.38457072 388.816377042 1328.24085802 434.284278106 1343.48825698 c 0
 477.853707721 1358.09901447 524.018555187 1364.03357611 569.99169427 1364.03357611 c 0
 571.994903694 1364.03357611 573.997749131 1364.02230847 576 1364 c 0
 618.59754119 1363.52539123 661.023359854 1358.26205556 703 1351 c 0
 744.299681825 1343.85505979 785.250117737 1334.80617076 826 1325 c 0
 907.301538861 1305.43536009 987.879007681 1282.94455983 1068 1259 c 1024
  Spiro
    79 128 {
    278 83 o
    427 57 o
    576 44 o
    893 162 o
    976 374 o
    768 665 o
    380 755 o
    216 1033 o
    312 1270 o
    576 1364 o
    703 1351 o
    826 1325 o
    1068 1259 o
    0 0 z
  EndSpiro
EndSplineSet
Layer: 4
EndChar
StartChar: X
Encoding: 88 88 51
Width: 1024
VWidth: 0
Flags: W
HStem: 0 21G<89 248.171 903.829 1063> 1388 20G<121 278.557 873.443 1031>
LayerCount: 5
Back
Fore
SplineSet
571 834 m 5
 581 834 l 5
 884 1408 l 5
 1031 1408 l 5
 660 721 l 5
 660 711 l 5
 1063 0 l 5
 915 0 l 5
 581 598 l 5
 571 598 l 5
 237 0 l 5
 89 0 l 5
 492 711 l 5
 492 721 l 5
 121 1408 l 5
 268 1408 l 5
 571 834 l 5
EndSplineSet
Layer: 2
Layer: 3
Layer: 4
EndChar
StartChar: Y
Encoding: 89 89 52
Width: 1024
VWidth: 0
Flags: W
HStem: 0 21G<512 640> 1132 20G<113 270.309 881.691 1039>
VStem: 113 125<1026.28 1152> 512 128<0 549.917> 914 125<1026.28 1152>
CounterMasks: 1 38
AnchorPoint: "top" 576 1152 basechar 0
LayerCount: 5
Back
SplineSet
113 1280 m 5
 238 1280 l 5
 302.618618619 1016.73492286 397.975975976 792.819074333 561 612 c 5
 591 612 l 5
 754.024024024 792.819074333 849.381381381 1016.73492286 914 1280 c 5
 1039 1280 l 5
 977.540342298 1005.63285024 868.034229829 743.480676329 640 502 c 5
 640 -128 l 5
 512 -128 l 5
 512 502 l 5
 283.965770171 743.480676329 174.459657702 1005.63285024 113 1280 c 5
EndSplineSet
Fore
SplineSet
113 1152 m 5
 238 1152 l 5
 302.618618619 939.180925665 397.975975976 758.171107994 561 612 c 5
 591 612 l 5
 754.024024024 758.171107994 849.381381381 939.180925665 914 1152 c 5
 1039 1152 l 5
 977.540342298 922.772946859 868.034179688 713.750976562 640 512 c 5
 640 0 l 5
 512 0 l 5
 512 512 l 5
 283.965820312 713.750976562 174.459657702 922.772946859 113 1152 c 5
EndSplineSet
Layer: 2
Layer: 3
Layer: 4
EndChar
StartChar: e
Encoding: 101 101 5
Width: 1024
VWidth: 0
Flags: W
HStem: -16 120<451.359 891.106> 512 120<354 798> 920 120<438.804 713.196>
VStem: 224 128<212.359 512 632 828.873>
AnchorPoint: "bottom" 832 0 basechar 0
AnchorPoint: "top" 576 1024 basechar 0
LayerCount: 5
Back
Fore
SplineSet
576 920 m 4
 478.994923858 920 409.705583756 874 381 799 c 4
 360.48 751 357.24 693 354 632 c 5
 798 632 l 5
 794.759765625 693 791.51953125 751 771 799 c 4
 742.293945312 874 673.004882812 920 576 920 c 4
576 1040 m 4
 737.971679688 1040 849.264648438 951 891 839 c 4
 926.942382812 747 928 637 928 512 c 5
 352 512 l 5
 352 410 352 308 384 235 c 4
 421 151 490 104 596 104 c 4
 689 104 791 113 896 125 c 5
 896 5 l 5
 792 -7 696 -16 596 -16 c 4
 422 -16 311 77 264 193 c 4
 226 286 224 391 224 512 c 4
 224 637 225.057142857 747 261 839 c 4
 302.735015773 951 414.028391167 1040 576 1040 c 4
EndSplineSet
Layer: 2
SplineSet
576 980 m 4
 567.324612998 980.007379198 558.648152101 979.686920168 550 979 c 4
 500.245423951 975.048008716 451.311733641 957.589653639 411.872890688 927.000215274 c 4
 372.434047735 896.410776909 343.188425924 853.820833359 324.673266956 807.470806807 c 4
 287.642949022 714.770753703 288.697604393 611.820126426 288 512 c 4
 287.91940119 500.467126224 287.856395582 488.93015463 287.856395582 477.392976915 c 4
 287.856395582 438.064565054 288.588533436 398.733758033 291.851659333 359.554711574 c 4
 296.072038818 308.882304454 305.0858767 258.105397834 325.073503873 211.350727412 c 4
 345.061131045 164.596056991 376.706318257 122.372381569 418.267368028 93.0776109084 c 4
 459.828417799 63.7828402475 510.278200692 48.5782008155 561 45 c 4
 569.320516814 44.413023977 577.65937952 44.0979331985 586 44 c 4
 588.022876744 43.9762479554 590.045623534 43.9646254314 592.068203574 43.9646254314 c 4
 622.122529267 43.9646254314 652.140036348 46.5308992478 682 50 c 4
 732.962111227 55.9207271802 783.604982912 64.3805382794 834 74 c 4
 886.675415345 84.0547468938 939.04273757 95.7244511352 991 109 c 5
 864 512 l 5
 889.476206294 557.86960532 903.034376913 610.28748356 903.034376913 662.755670374 c 4
 903.034376913 717.207323587 888.713226589 770.346948745 862.075606256 817.137046122 c 4
 835.777673956 863.33046722 797.567381177 902.617464504 752.335260943 930.536431088 c 4
 707.103140709 958.455397671 655.00156457 974.969175132 602 979 c 4
 593.349874121 979.657851193 584.675101813 979.992621044 576 980 c 4
  Spiro
    576 980 o
    550 979 o
    288 512 o
    561 45 o
    586 44 o
    682 50 o
    834 74 o
    991 109 v
    864 512 v
    602 979 o
    0 0 z
  EndSpiro
EndSplineSet
Layer: 3
Layer: 4
EndChar
StartChar: y
Encoding: 121 121 24
Width: 1024
VWidth: 0
Flags: W
HStem: -400 120<256 455.863> 1004 20G<204 365 788 948>
VStem: 204 131<819.132 1024> 817 131<805.636 1024>
LayerCount: 5
Back
Fore
SplineSet
608 115 m 5
 696 414 759 717 817 1024 c 5
 948 1024 l 5
 878 655 812 351 677 -73 c 4
 644 -177 608 -271 547 -321 c 4
 492 -367 411 -400 256 -400 c 5
 256 -280 l 5
 338 -280 418 -266 453 -239 c 4
 500 -203 520 -140 568 0 c 5
 517 0 l 5
 360 326 273 676 204 1024 c 5
 335 1024 l 5
 395 711 472 400 598 115 c 5
 608 115 l 5
EndSplineSet
Layer: 2
SplineSet
391 -728 m 5
 391 -728 1005.36170213 962.091816367 1216 1536 c 1029
  Spiro
    391 -728 {
    557.788 -269.387 o
    908.89 694.973 o
    1216 1536 v
    0 0 z
  EndSpiro
653 5 m 5
 64 1536 l 1029
  Spiro
    653 5 {
    64 1536 v
    0 0 z
  EndSpiro
EndSplineSet
Layer: 3
SplineSet
596 -54 m 1
 466 -358 l 2
 457.563898426 -377.727499064 448.453103785 -397.460990346 434.85359019 -414.056027528 c 0
 421.254076596 -430.65106471 403.53896582 -443.783312939 383.822117037 -452.244276427 c 0
 364.105268254 -460.705239913 342.71200732 -464.662751865 321.32882854 -466.42391464 c 0
 299.94564976 -468.185077414 278.455582701 -468.000000003 257 -468 c 2
 256 -468 l 1025
  Spiro
    596 -54 {
    466 -358 ]
    257 -468 [
    256 -468 o
    0 0 z
  EndSpiro
EndSplineSet
Layer: 4
EndChar
StartChar: aacute
Encoding: 225 225 151
Width: 1024
VWidth: 0
Flags: W
HStem: -16 120<415.338 660.379> 0 21G<768 896> 512 110<418.102 768> 920 120<324.118 738.851>
VStem: 224 128<166.196 443.733> 768 128<0 123 211.392 512 622 892.213>
LayerCount: 5
Back
Fore
SplineSet
768 512 m 5xbc
 572 512 l 6
 517 512 459 512 408 458 c 4
 372 420 352 362 352 303 c 4
 352 194 417 104 532 104 c 4
 761.8125 104 768 341.336914062 768 471 c 6
 768 512 l 5xbc
608 1040 m 4
 704 1040 805 1021 866 913 c 4
 896 860 896 785 896 749 c 6
 896 0 l 5
 768 0 l 5x7c
 768 123 l 5
 758 123 l 5
 694 35 617 -16 508 -16 c 4
 349.825195312 -16 224 116.146484375 224 301 c 4
 224 383 249 470 312 533 c 4
 402 622 512 622 574 622 c 6
 768 622 l 5
 768 744 l 6
 768 788 768 831 750 862 c 4
 729 898 696 920 608 920 c 4
 520 920 408 910 320 899 c 5
 320 1021 l 5
 407 1031 516 1040 608 1040 c 4
488 1152 m 5
 626 1152 l 5
 792 1408 l 5
 654 1408 l 5
 488 1152 l 5
EndSplineSet
Layer: 2
Layer: 3
Layer: 4
EndChar
StartChar: aring
Encoding: 229 229 157
Width: 1024
VWidth: 0
Flags: W
HStem: -16 120<415.338 660.379> 0 21G<768 896> 512 110<418.102 768> 899 122<320 445.262> 920 120<520 645.687> 940 100<516 704> 1296 100<481.917 670.083>
VStem: 224 128<166.196 443.733> 348 108<1063.59 1272.41> 696 108<1063.59 1272.41> 768 128<0 123 211.392 512 622 892.213>
LayerCount: 5
Back
Fore
SplineSet
768 512 m 5xa320
 572 512 l 6
 517 512 459 512 408 458 c 4
 372 420 352 362 352 303 c 4
 352 194 417 104 532 104 c 4
 761.8125 104 768 341.336914062 768 471 c 6
 768 512 l 5xa320
608 1040 m 4x2b20
 704 1040 805 1021 866 913 c 4
 896 860 896 785 896 749 c 6
 896 0 l 5
 768 0 l 5x6b20
 768 123 l 5
 758 123 l 5
 694 35 617 -16 508 -16 c 4
 349.825195312 -16 224 116.146484375 224 301 c 4
 224 383 249 470 312 533 c 4
 402 622 512 622 574 622 c 6
 768 622 l 5
 768 744 l 6
 768 788 768 831 750 862 c 4
 729 898 696 920 608 920 c 4xab20
 520 920 408 910 320 899 c 5
 320 1021 l 5x3320
 407 1031 516 1040 608 1040 c 4x2b20
576 1296 m 0
 506.313476562 1296 456 1250.86425781 456 1168 c 0
 456 1085.13671875 506.311523438 1040 576 1040 c 0
 645.686523438 1040 696 1085.13671875 696 1168 c 0x2ac0
 696 1250.86328125 645.6875 1296 576 1296 c 0
576 1396 m 0
 711.306640625 1396 804 1295.19140625 804 1168 c 0
 804 1040.80957031 711.307617188 940 576 940 c 0x26c0
 440.694335938 940 348 1040.80957031 348 1168 c 0
 348 1295.19042969 440.692382812 1396 576 1396 c 0
EndSplineSet
Layer: 2
Layer: 3
Layer: 4
EndChar
StartChar: edieresis
Encoding: 235 235 149
Width: 1024
VWidth: 0
Flags: W
HStem: -16 120<451.359 891.106> 512 120<354 798> 920 120<438.804 713.196> 1200 224<261.032 442.968 709.032 890.968>
VStem: 224 128<212.359 512 632 828.873> 240 224<1221.03 1402.97> 688 224<1221.03 1402.97>
LayerCount: 5
Back
Fore
SplineSet
576 920 m 4xf2
 478.995117188 920 409.706054688 874 381 799 c 4
 360.48046875 751 357.240234375 693 354 632 c 5
 798 632 l 5
 794.759765625 693 791.51953125 751 771 799 c 4
 742.293945312 874 673.004882812 920 576 920 c 4xf2
576 1040 m 4
 737.971679688 1040 849.264648438 951 891 839 c 4
 926.942382812 747 928 637 928 512 c 5
 352 512 l 5
 352 410 352 308 384 235 c 4
 421 151 490 104 596 104 c 4
 689 104 791 113 896 125 c 5
 896 5 l 5
 792 -7 696 -16 596 -16 c 4
 422 -16 311 77 264 193 c 4
 226 286 224 391 224 512 c 4xfa
 224 637 225.057617188 747 261 839 c 4
 302.735351562 951 414.028320312 1040 576 1040 c 4
800 1424 m 4
 866 1424 912 1378 912 1312 c 4
 912 1246 866 1200 800 1200 c 4
 734 1200 688 1246 688 1312 c 4
 688 1378 734 1424 800 1424 c 4
352 1424 m 4
 418 1424 464 1378 464 1312 c 4xf6
 464 1246 418 1200 352 1200 c 4xfa
 286 1200 240 1246 240 1312 c 4xf6
 240 1378 286 1424 352 1424 c 4
EndSplineSet
Layer: 2
Layer: 3
Layer: 4
EndChar
StartChar: Cacute
Encoding: 262 262 195
Width: 1024
VWidth: 0
Flags: W
HStem: -16 120<449.055 1018.56> 1048 120<443.402 1006.1>
VStem: 112 128<328.306 823.694>
LayerCount: 5
Back
Fore
SplineSet
653 -16 m 4
 303.540039062 -16 112 213 112 576 c 4
 112 939 300 1168 643 1168 c 4
 791.12109375 1168 906.9921875 1155.70117188 1011 1141 c 5
 1011 1021 l 5
 906.12890625 1035.20703125 789.189453125 1048 643 1048 c 4
 370 1048 240 870 240 576 c 4
 240 282 373.225585938 104 653 104 c 4
 771.797851562 104 906.17578125 118.243164062 1024 135 c 5
 1024 15 l 5
 910.071289062 -1.7568359375 783.483398438 -16 653 -16 c 4
488 1280 m 5
 626 1280 l 5
 792 1536 l 5
 654 1536 l 5
 488 1280 l 5
EndSplineSet
Layer: 2
Layer: 3
Layer: 4
EndChar
StartChar: Ccircumflex
Encoding: 264 264 196
Width: 1024
VWidth: 0
Flags: W
HStem: -16 120<449.055 1018.56> 1048 120<443.402 1006.1>
VStem: 112 128<328.306 823.694>
LayerCount: 5
Back
Fore
SplineSet
653 -16 m 4
 303.540039062 -16 112 213 112 576 c 4
 112 939 300 1168 643 1168 c 4
 791.12109375 1168 906.9921875 1155.70117188 1011 1141 c 5
 1011 1021 l 5
 906.12890625 1035.20703125 789.189453125 1048 643 1048 c 4
 370 1048 240 870 240 576 c 4
 240 282 373.225585938 104 653 104 c 4
 771.797851562 104 906.17578125 118.243164062 1024 135 c 5
 1024 15 l 5
 910.071289062 -1.7568359375 783.483398438 -16 653 -16 c 4
497 1536 m 1
 655 1536 l 1
 952 1280 l 1
 794 1280 l 1
 576 1443.96289062 l 1
 358 1280 l 1
 200 1280 l 1
 497 1536 l 1
EndSplineSet
Layer: 2
Layer: 3
Layer: 4
EndChar
StartChar: sacute
Encoding: 347 347 254
Width: 1024
VWidth: 0
Flags: HW
HStem: -16 120<260.566 720.345> 920 120<413.623 843.839> 1162 256
VStem: 234 128<687.599 867.607> 503 304 800 128<183.035 441.813>
LayerCount: 5
Back
Fore
SplineSet
567 -16 m 4
 464 -16 345 -4 256 6 c 5
 256 126 l 5
 341 116 470 104 567 104 c 4
 755 104 800 228 800 308 c 4
 800 390 757 449 700 478 c 4
 614 522 507 499 402 540 c 4
 317.686523438 572.922851562 234 655.446289062 234 776 c 4
 234 913.397460938 343 1040 572 1040 c 4
 689 1040 799 1028.48339844 886 1019 c 5
 886 899 l 5
 798 907.806640625 675 920 572 920 c 4
 410 920 362 841.717773438 362 776 c 4
 362 713.478515625 403.672851562 669.932617188 450 652 c 4
 543 616 654 640 762 584 c 4
 855 536 928 438 928 308 c 4
 928 145 810 -16 567 -16 c 4
503 1162 m 5
 641 1162 l 5
 807 1418 l 5
 669 1418 l 5
 503 1162 l 5
EndSplineSet
Layer: 2
Layer: 3
Layer: 4
EndChar
StartChar: Scircumflex
Encoding: 348 348 293
Width: 1024
VWidth: 0
Flags: HW
HStem: -16 120<252.94 810.09> 1048 120<381.816 843.282> 1280 256
VStem: 152 128<726.002 960.126> 912 128<192.804 425.422>
LayerCount: 5
Back
Fore
SplineSet
620 -16 m 0
 486 -16 366 -2 250 16 c 1
 250 139 l 1
 364 121 492 104 620 104 c 0
 799 104 926 184 926 320 c 0
 926 412 856 475 768 505 c 0
 654 544 542 515 411 578 c 0
 304 629 226 733 226 866 c 0
 226 1041 385 1167 620 1167 c 0
 756 1167 877 1154 990 1142 c 1
 990 1022 l 1
 878 1034 745 1047 620 1047 c 0
 455 1047 354 964 354 844 c 0
 354 770 406 717 477 686 c 0
 575 643 701 659 816 618 c 0
 945 572 1054 460 1054 298 c 0
 1054 109 869 -16 620 -16 c 0
497 1536 m 1
 655 1536 l 1
 952 1280 l 1
 794 1280 l 1
 576 1443.96289062 l 1
 358 1280 l 1
 200 1280 l 1
 497 1536 l 1
EndSplineSet
Layer: 2
Layer: 3
Layer: 4
EndChar
StartChar: uni01EB
Encoding: 491 491 298
Width: 1024
VWidth: 0
Flags: W
HStem: -402.667 120<460.912 703.146> -16 120<447.708 576> 920 120<445.97 705.959>
VStem: 224 128<209.125 814.893> 321 128<-265.383 -117.676> 800 128<209.107 814.875>
LayerCount: 5
Back
Fore
SplineSet
576 -282.666992188 m 4xec
 622 -282.666992188 666 -272.666992188 705 -262.666992188 c 5
 705 -385.666992188 l 5
 665 -393.666992188 622 -402.666992188 576 -402.666992188 c 4
 462 -402.666992188 321 -327.666992188 321 -207.666992188 c 4xec
 321 -69.2927734375 514.999958038 -74.9025390625 576 -16 c 5
 415.514648438 -16 309.978036566 79.2583986465 263.647460938 194.794921875 c 4
 225.646484375 289.559570312 224 391.489257812 224 512 c 4xf4
 224 632.510742188 225.643688474 734.441550902 263.647460938 829.205078125 c 4
 309.981445312 944.740234375 415.514648438 1040 576 1040 c 4
 736.485351562 1040 842.021963434 944.741601353 888.352539062 829.205078125 c 4
 926.353515625 734.440429688 928 632.510742188 928 512 c 4
 928 391.489257812 926.356311526 289.558449098 888.352539062 194.794921875 c 4
 858.36547799 120.021300888 803.41742776 54.0833619161 725.154175478 16.2786998956 c 4
 620.068392988 -34.4824475693 449.000000296 -96.682133108 449 -200.666992188 c 4
 449 -260.666992188 519 -282.666992188 576 -282.666992188 c 4xec
576 920 m 4
 480 920 415.655472916 868.138682289 384 789 c 4
 354 714 352 613.502929688 352 512 c 4xf4
 352 410.497070312 353.673490503 309.86857032 384 235 c 4
 416 156 480 104 576 104 c 4
 672 104 736.344527084 155.861317711 768 235 c 4
 798 310 800 410.497070312 800 512 c 4
 800 613.502929688 798.326509497 714.13142968 768 789 c 4
 736 868 672 920 576 920 c 4
EndSplineSet
Layer: 2
Layer: 3
Layer: 4
EndChar
StartChar: uni0207
Encoding: 519 519 308
Width: 1024
VWidth: 0
Flags: W
HStem: -16 120<450.346 890.029> 512 120<354.639 797.458> 920 120<445.97 705.959> 1152 21G<236 364 788 916> 1304 120<418.7 733.3>
VStem: 224 128<210.576 512 632 813.956 1152 1239.51> 788 128<1152 1252.45>
LayerCount: 5
Back
Fore
SplineSet
352 512 m 1
 352 410.497070312 352 308 384 235 c 0
 420 152 485 104 586 104 c 0
 662.2421875 104 767.84765625 120.916992188 896 148 c 1
 896 25 l 1
 768.595703125 -1.4013671875 668.55859375 -16 586 -16 c 0
 417.376953125 -16 311 78 264 193 c 0
 226 286 224 390.729492188 224 512 c 0
 224 632.510742188 225.643554688 734.44140625 263.647460938 829.205078125 c 0
 309.981445312 944.740234375 415.514648438 1040 576 1040 c 0
 736.485351562 1040 842.021484375 944.7421875 888.352539062 829.205078125 c 0
 926.353515625 734.440429688 928 632.510742188 928 512 c 1
 352 512 l 1
797.458007812 632 m 1
 794.057617188 690.013671875 786.173828125 744.1328125 768 789 c 0
 736 868 672 920 576 920 c 0
 480 920 415.655273438 868.138671875 384 789 c 0
 366.025390625 744.063476562 358.102539062 689.974609375 354.638671875 632 c 1
 797.458007812 632 l 1
788 1152 m 5
 788 1238.34667969 718.939453125 1304 576 1304 c 4
 433.061523438 1304 364 1238.34472656 364 1152 c 5
 236 1152 l 5
 236 1320.05566406 387.739257812 1424 576 1424 c 4
 764.259765625 1424 916 1320.05371094 916 1152 c 5
 788 1152 l 5
EndSplineSet
Layer: 2
Layer: 3
Layer: 4
EndChar
StartChar: uni0218
Encoding: 536 536 325
Width: 1024
VWidth: 0
Flags: W
HStem: -528 120<512 611.002> -16 120<252.94 775.362> 1176 120<381.816 843.282>
VStem: 152 128<854.002 1088.13> 640 128<-361.261 -128> 912 128<229.087 515.467>
LayerCount: 5
Back
Fore
SplineSet
570 1176 m 0
 379 1176 280 1080.08984375 280 972 c 0
 280 884.750976562 337.739257812 818.921875 412 787 c 0
 522.40625 739.540039062 664.34765625 768.748046875 792 721 c 0
 923 672 1040 547 1040 375 c 0
 1040 192 897 -16 582 -16 c 0
 465.171875 -16 319.254882812 10.90625 192 39.2939453125 c 1
 192 162.702148438 l 1
 319.401367188 133.064453125 467.776367188 104 582 104 c 0
 814 104 912 240 912 375 c 0
 912 493 834.958984375 574.890625 744 609 c 0
 619.036132812 655.861328125 486.643554688 618.942382812 348 683 c 0
 239.790039062 732.99609375 152 836.612304688 152 972 c 0
 152 1127.31933594 288 1296 570 1296 c 0
 671.189453125 1296 810.776367188 1264.71386719 930 1232.71972656 c 1
 930 1108.33203125 l 1
 810.129882812 1141.83398438 668.7109375 1176 570 1176 c 0
768 -233 m 6
 768 -293 767.727539062 -362.798828125 716 -433 c 4
 674 -490 602.005859375 -528 512 -528 c 4
 512 -408 l 4
 559 -408 590.879882812 -390.909179688 612 -363 c 4
 640 -326 640 -283 640 -233 c 6
 640 -128 l 5
 768 -128 l 5
 768 -233 l 6
EndSplineSet
Layer: 2
Layer: 3
Layer: 4
EndChar
StartChar: uni021A
Encoding: 538 538 327
Width: 1024
VWidth: 0
Flags: W
HStem: -528 120<384 483.002> 0 21G<512 640> 1160 120<128 512 640 1024>
VStem: 512 128<-361.261 -128 0 1160>
LayerCount: 5
Back
Fore
SplineSet
1024 1280 m 1
 1024 1160 l 1
 640 1160 l 1
 640 0 l 1
 512 0 l 1
 512 1160 l 1
 128 1160 l 1
 128 1280 l 1
 1024 1280 l 1
640 -233 m 6
 640 -293 639.727539062 -362.798828125 588 -433 c 4
 546 -490 474.005859375 -528 384 -528 c 4
 384 -408 l 4
 431 -408 462.879882812 -390.909179688 484 -363 c 4
 512 -326 512 -283 512 -233 c 6
 512 -128 l 5
 640 -128 l 5
 640 -233 l 6
EndSplineSet
Layer: 2
Layer: 3
Layer: 4
EndChar
StartChar: uni0304
Encoding: 772 772 109
Width: 1024
VWidth: 0
Flags: W
HStem: 1416 120<256 896>
VStem: 256 640<1416 1536>
AnchorPoint: "top" 576 1152 mark 0
LayerCount: 5
Back
Fore
SplineSet
256 1536 m 5
 896 1536 l 5
 896 1416 l 5
 256 1416 l 5
 256 1536 l 5
EndSplineSet
Layer: 2
Layer: 3
Layer: 4
EndChar
StartChar: uni0328
Encoding: 808 808 171
Width: 1024
VWidth: 0
Flags: W
HStem: -400 120<518.778 640> -20 20G<481.69 640>
VStem: 384 128<-273.673 -78.3695>
AnchorPoint: "bottom" 584 -640 mark 0
LayerCount: 5
Back
Fore
SplineSet
581 -280 m 4
 602.03875969 -280 622.162790698 -277 640 -268 c 5
 640 -389 l 5
 615.503875969 -397.561085973 589.170542636 -400 561 -400 c 4
 481.870588235 -400 384 -325 384 -205 c 4
 384 -107 451.380392157 -43 512 0 c 5
 640 0 l 5
 551.818181818 -60 512 -113 512 -198 c 4
 512 -258 550.031496063 -280 581 -280 c 4
EndSplineSet
Layer: 2
Layer: 3
Layer: 4
EndChar
